<?xml version="1.0" encoding="UTF-8" standalone="no"?>
<!DOCTYPE svg PUBLIC "-//W3C//DTD SVG 1.1//EN"
 "http://www.w3.org/Graphics/SVG/1.1/DTD/svg11.dtd">
<!-- Generated by graphviz version 2.40.1 (20161225.0304)
 -->
<!-- Title: state transitions Pages: 1 -->
<svg width="596pt" height="352pt"
 viewBox="0.00 0.00 596.00 352.00" xmlns="http://www.w3.org/2000/svg" xmlns:xlink="http://www.w3.org/1999/xlink">
<g id="graph0" class="graph" transform="scale(1 1) rotate(0) translate(4 348)">
<title>state transitions</title>
<polygon fill="#ffffff" stroke="transparent" points="-4,4 -4,-348 592,-348 592,4 -4,4"/>
<g id="clust1" class="cluster state regular">
<title>cluster_mst_exec_state</title>
<path fill="none" stroke="#000000" stroke-width="2" d="M20,-8C20,-8 568,-8 568,-8 574,-8 580,-14 580,-20 580,-20 580,-324 580,-324 580,-330 574,-336 568,-336 568,-336 20,-336 20,-336 14,-336 8,-330 8,-324 8,-324 8,-20 8,-20 8,-14 14,-8 20,-8"/>
<text text-anchor="start" x="251.988" y="-317.2" font-family="Helvetica,sans-Serif" font-size="12.00" fill="#000000">mst_exec_state</text>
</g>
<!-- mst_exec_state -->
<!-- IDLE -->
<g id="node2" class="node state regular">
<title>IDLE</title>
<polygon fill="#ffffff" fill-opacity="0.003922" stroke="transparent" stroke-width="2" points="99,-298 43,-298 43,-262 99,-262 99,-298"/>
<text text-anchor="start" x="57.6644" y="-276.2" font-family="Helvetica,sans-Serif" font-size="12.00" fill="#000000">IDLE</text>
<path fill="none" stroke="#000000" stroke-width="2" d="M55.3333,-263C55.3333,-263 86.6667,-263 86.6667,-263 92.3333,-263 98,-268.6667 98,-274.3333 98,-274.3333 98,-285.6667 98,-285.6667 98,-291.3333 92.3333,-297 86.6667,-297 86.6667,-297 55.3333,-297 55.3333,-297 49.6667,-297 44,-291.3333 44,-285.6667 44,-285.6667 44,-274.3333 44,-274.3333 44,-268.6667 49.6667,-263 55.3333,-263"/>
</g>
<!-- INIT_COUNTER -->
<g id="node3" class="node state regular">
<title>INIT_COUNTER</title>
<polygon fill="#ffffff" fill-opacity="0.003922" stroke="transparent" stroke-width="2" points="126,-216 16,-216 16,-180 126,-180 126,-216"/>
<text text-anchor="start" x="26.6732" y="-194.2" font-family="Helvetica,sans-Serif" font-size="12.00" fill="#000000">INIT_COUNTER</text>
<path fill="none" stroke="#000000" stroke-width="2" d="M28.3333,-181C28.3333,-181 113.6667,-181 113.6667,-181 119.3333,-181 125,-186.6667 125,-192.3333 125,-192.3333 125,-203.6667 125,-203.6667 125,-209.3333 119.3333,-215 113.6667,-215 113.6667,-215 28.3333,-215 28.3333,-215 22.6667,-215 17,-209.3333 17,-203.6667 17,-203.6667 17,-192.3333 17,-192.3333 17,-186.6667 22.6667,-181 28.3333,-181"/>
</g>
<!-- IDLE&#45;&gt;INIT_COUNTER -->
<g id="edge1" class="edge transition">
<title>IDLE&#45;&gt;INIT_COUNTER</title>
<path fill="none" stroke="#000000" d="M71,-261.8015C71,-251.3976 71,-238.1215 71,-226.3768"/>
<polygon fill="#000000" stroke="#000000" points="74.5001,-226.1476 71,-216.1476 67.5001,-226.1476 74.5001,-226.1476"/>
<text text-anchor="middle" x="72.3895" y="-236" font-family="Helvetica,sans-Serif" font-size="10.00" fill="#000000"> </text>
</g>
<!-- INIT_COUNTER&#45;&gt;INIT_COUNTER -->
<g id="edge3" class="edge transition">
<title>INIT_COUNTER&#45;&gt;INIT_COUNTER</title>
<path fill="none" stroke="#000000" d="M126.025,-202.7676C138.6938,-202.3568 148,-200.7676 148,-198 148,-196.054 143.3992,-194.6907 136.2635,-193.9099"/>
<polygon fill="#000000" stroke="#000000" points="136.2343,-190.4004 126.025,-193.2324 135.7721,-197.3851 136.2343,-190.4004"/>
<text text-anchor="start" x="148" y="-195" font-family="Helvetica,sans-Serif" font-size="10.00" fill="#000000">not (count = std_logic_vector(to_unsigned((C_M_START_COUNT &#45; 1), WAIT_COUNT_BITS))) &#160;&#160;</text>
</g>
<!-- SEND_STREAM -->
<g id="node4" class="node state regular">
<title>SEND_STREAM</title>
<polygon fill="#ffffff" fill-opacity="0.003922" stroke="transparent" stroke-width="2" points="126.5,-134 15.5,-134 15.5,-98 126.5,-98 126.5,-134"/>
<text text-anchor="start" x="26.5006" y="-112.2" font-family="Helvetica,sans-Serif" font-size="12.00" fill="#000000">SEND_STREAM</text>
<path fill="none" stroke="#000000" stroke-width="2" d="M27.8333,-99C27.8333,-99 114.1667,-99 114.1667,-99 119.8333,-99 125.5,-104.6667 125.5,-110.3333 125.5,-110.3333 125.5,-121.6667 125.5,-121.6667 125.5,-127.3333 119.8333,-133 114.1667,-133 114.1667,-133 27.8333,-133 27.8333,-133 22.1667,-133 16.5,-127.3333 16.5,-121.6667 16.5,-121.6667 16.5,-110.3333 16.5,-110.3333 16.5,-104.6667 22.1667,-99 27.8333,-99"/>
</g>
<!-- INIT_COUNTER&#45;&gt;SEND_STREAM -->
<g id="edge2" class="edge transition">
<title>INIT_COUNTER&#45;&gt;SEND_STREAM</title>
<path fill="none" stroke="#000000" d="M71,-179.8015C71,-169.3976 71,-156.1215 71,-144.3768"/>
<polygon fill="#000000" stroke="#000000" points="74.5001,-144.1476 71,-134.1476 67.5001,-144.1476 74.5001,-144.1476"/>
<text text-anchor="start" x="71" y="-154" font-family="Helvetica,sans-Serif" font-size="10.00" fill="#000000">count = std_logic_vector(to_unsigned((C_M_START_COUNT &#45; 1), WAIT_COUNT_BITS)) &#160;&#160;</text>
</g>
<!-- SEND_STREAM&#45;&gt;SEND_STREAM -->
<g id="edge5" class="edge transition">
<title>SEND_STREAM&#45;&gt;SEND_STREAM</title>
<path fill="none" stroke="#000000" d="M126.7324,-120.756C139.3044,-120.3275 148.5,-118.7422 148.5,-116 148.5,-114.0719 143.9539,-112.7157 136.8844,-111.9315"/>
<polygon fill="#000000" stroke="#000000" points="136.946,-108.4278 126.7324,-111.244 136.473,-115.4118 136.946,-108.4278"/>
<text text-anchor="start" x="148.5" y="-113" font-family="Helvetica,sans-Serif" font-size="10.00" fill="#000000">not (tx_done = &#39;1&#39;) &#160;&#160;</text>
</g>
<!-- WAIT_PRT -->
<g id="node5" class="node state regular">
<title>WAIT_PRT</title>
<polygon fill="#ffffff" fill-opacity="0.003922" stroke="transparent" stroke-width="2" points="151,-52 69,-52 69,-16 151,-16 151,-52"/>
<text text-anchor="start" x="79.6688" y="-30.2" font-family="Helvetica,sans-Serif" font-size="12.00" fill="#000000">WAIT_PRT</text>
<path fill="none" stroke="#000000" stroke-width="2" d="M81.3333,-17C81.3333,-17 138.6667,-17 138.6667,-17 144.3333,-17 150,-22.6667 150,-28.3333 150,-28.3333 150,-39.6667 150,-39.6667 150,-45.3333 144.3333,-51 138.6667,-51 138.6667,-51 81.3333,-51 81.3333,-51 75.6667,-51 70,-45.3333 70,-39.6667 70,-39.6667 70,-28.3333 70,-28.3333 70,-22.6667 75.6667,-17 81.3333,-17"/>
</g>
<!-- SEND_STREAM&#45;&gt;WAIT_PRT -->
<g id="edge4" class="edge transition">
<title>SEND_STREAM&#45;&gt;WAIT_PRT</title>
<path fill="none" stroke="#000000" d="M67.4522,-97.8647C66.521,-88.8204 66.7088,-77.9348 70.715,-69 72.1795,-65.7337 74.1163,-62.6473 76.3463,-59.7622"/>
<polygon fill="#000000" stroke="#000000" points="79.1067,-61.9295 83.259,-52.1822 73.9345,-57.2126 79.1067,-61.9295"/>
<text text-anchor="start" x="70" y="-72" font-family="Helvetica,sans-Serif" font-size="10.00" fill="#000000">tx_done = &#39;1&#39; &#160;&#160;</text>
</g>
<!-- WAIT_PRT&#45;&gt;SEND_STREAM -->
<g id="edge7" class="edge transition">
<title>WAIT_PRT&#45;&gt;SEND_STREAM</title>
<path fill="none" stroke="#000000" d="M130.4417,-52.4027C137.6111,-61.1192 142.6273,-71.6463 137,-81 134.6421,-84.9193 131.6814,-88.423 128.3287,-91.5511"/>
<polygon fill="#000000" stroke="#000000" points="126.097,-88.8539 120.4446,-97.815 130.4515,-94.3347 126.097,-88.8539"/>
<text text-anchor="start" x="139" y="-72" font-family="Helvetica,sans-Serif" font-size="10.00" fill="#000000">not (counter_index &lt; unsigned(CELLS_IN_PRT)) &#160;&#160;</text>
</g>
<!-- WAIT_PRT&#45;&gt;WAIT_PRT -->
<g id="edge6" class="edge transition">
<title>WAIT_PRT&#45;&gt;WAIT_PRT</title>
<path fill="none" stroke="#000000" d="M151.2026,-38.8643C163.4613,-38.7191 173,-37.0977 173,-34 173,-31.822 168.2842,-30.3737 161.2229,-29.6554"/>
<polygon fill="#000000" stroke="#000000" points="161.3705,-26.1584 151.2026,-29.1357 161.0079,-33.149 161.3705,-26.1584"/>
<text text-anchor="start" x="173" y="-31" font-family="Helvetica,sans-Serif" font-size="10.00" fill="#000000">counter_index &lt; unsigned(CELLS_IN_PRT) &#160;&#160;</text>
</g>
</g>
</svg>
